<svg width="49" height="49" viewBox="0 0 49 49" fill="none" xmlns="http://www.w3.org/2000/svg">
<rect width="49" height="49" rx="14" fill="url(#paint0_linear_4_110)" fill-opacity="0.8"/>
<path d="M17.5541 34.2C16.1874 34.2 14.9624 33.85 13.8791 33.15C12.8124 32.45 11.9624 31.4333 11.3291 30.1C10.7124 28.7667 10.4041 27.15 10.4041 25.25C10.4041 23.35 10.7124 21.7333 11.3291 20.4C11.9624 19.0667 12.8124 18.05 13.8791 17.35C14.9624 16.65 16.1874 16.3 17.5541 16.3C18.9041 16.3 20.1208 16.65 21.2041 17.35C22.2874 18.05 23.1374 19.0667 23.7541 20.4C24.3708 21.7333 24.6791 23.35 24.6791 25.25C24.6791 27.15 24.3708 28.7667 23.7541 30.1C23.1374 31.4333 22.2874 32.45 21.2041 33.15C20.1208 33.85 18.9041 34.2 17.5541 34.2ZM17.5541 31.975C18.4708 31.975 19.2708 31.725 19.9541 31.225C20.6541 30.725 21.1958 29.975 21.5791 28.975C21.9791 27.975 22.1791 26.7333 22.1791 25.25C22.1791 23.7667 21.9791 22.525 21.5791 21.525C21.1958 20.525 20.6541 19.775 19.9541 19.275C19.2708 18.775 18.4708 18.525 17.5541 18.525C16.6374 18.525 15.8291 18.775 15.1291 19.275C14.4291 19.775 13.8791 20.525 13.4791 21.525C13.0958 22.525 12.9041 23.7667 12.9041 25.25C12.9041 26.7333 13.0958 27.975 13.4791 28.975C13.8791 29.975 14.4291 30.725 15.1291 31.225C15.8291 31.725 16.6374 31.975 17.5541 31.975ZM30.0289 34V17.5L31.1039 18.675H26.0789V16.5H32.5039V34H30.0289ZM37.9818 34.15C37.5152 34.15 37.1152 33.9917 36.7818 33.675C36.4485 33.3417 36.2818 32.925 36.2818 32.425C36.2818 31.925 36.4485 31.5167 36.7818 31.2C37.1152 30.8833 37.5152 30.725 37.9818 30.725C38.4318 30.725 38.8152 30.8833 39.1318 31.2C39.4652 31.5167 39.6318 31.925 39.6318 32.425C39.6318 32.925 39.4652 33.3417 39.1318 33.675C38.8152 33.9917 38.4318 34.15 37.9818 34.15Z" fill="white"/>
<defs>
<linearGradient id="paint0_linear_4_110" x1="8.5" y1="7.22858e-07" x2="49" y2="49" gradientUnits="userSpaceOnUse">
<stop stop-color="#5F8ADA"/>
<stop offset="1" stop-color="#5749B0"/>
</linearGradient>
</defs>
</svg>
