<svg width="49" height="49" viewBox="0 0 49 49" fill="none" xmlns="http://www.w3.org/2000/svg">
<rect width="49" height="49" rx="14" fill="url(#paint0_linear_4_111)" fill-opacity="0.8"/>
<path d="M15.3808 34.2C14.0141 34.2 12.7891 33.85 11.7058 33.15C10.6391 32.45 9.7891 31.4333 9.15576 30.1C8.5391 28.7667 8.23076 27.15 8.23076 25.25C8.23076 23.35 8.5391 21.7333 9.15576 20.4C9.7891 19.0667 10.6391 18.05 11.7058 17.35C12.7891 16.65 14.0141 16.3 15.3808 16.3C16.7308 16.3 17.9474 16.65 19.0308 17.35C20.1141 18.05 20.9641 19.0667 21.5808 20.4C22.1974 21.7333 22.5058 23.35 22.5058 25.25C22.5058 27.15 22.1974 28.7667 21.5808 30.1C20.9641 31.4333 20.1141 32.45 19.0308 33.15C17.9474 33.85 16.7308 34.2 15.3808 34.2ZM15.3808 31.975C16.2974 31.975 17.0974 31.725 17.7808 31.225C18.4808 30.725 19.0224 29.975 19.4058 28.975C19.8058 27.975 20.0058 26.7333 20.0058 25.25C20.0058 23.7667 19.8058 22.525 19.4058 21.525C19.0224 20.525 18.4808 19.775 17.7808 19.275C17.0974 18.775 16.2974 18.525 15.3808 18.525C14.4641 18.525 13.6558 18.775 12.9558 19.275C12.2558 19.775 11.7058 20.525 11.3058 21.525C10.9224 22.525 10.7308 23.7667 10.7308 25.25C10.7308 26.7333 10.9224 27.975 11.3058 28.975C11.7058 29.975 12.2558 30.725 12.9558 31.225C13.6558 31.725 14.4641 31.975 15.3808 31.975ZM24.6306 34V32.3L31.7556 25.425C32.3889 24.825 32.8556 24.3 33.1556 23.85C33.4722 23.3833 33.6806 22.9583 33.7806 22.575C33.8972 22.175 33.9556 21.7917 33.9556 21.425C33.9556 20.525 33.6389 19.8167 33.0056 19.3C32.3722 18.7833 31.4472 18.525 30.2306 18.525C29.2972 18.525 28.4556 18.6833 27.7056 19C26.9556 19.3 26.3056 19.775 25.7556 20.425L24.0556 18.95C24.7222 18.1 25.6139 17.45 26.7306 17C27.8639 16.5333 29.1056 16.3 30.4556 16.3C31.6722 16.3 32.7306 16.5 33.6306 16.9C34.5306 17.2833 35.2222 17.8417 35.7056 18.575C36.2056 19.3083 36.4556 20.175 36.4556 21.175C36.4556 21.7417 36.3806 22.3 36.2306 22.85C36.0806 23.4 35.7972 23.9833 35.3806 24.6C34.9639 25.2167 34.3639 25.9083 33.5806 26.675L27.2306 32.8L26.6306 31.825H37.2056V34H24.6306ZM41.1552 34.15C40.6885 34.15 40.2885 33.9917 39.9552 33.675C39.6218 33.3417 39.4552 32.925 39.4552 32.425C39.4552 31.925 39.6218 31.5167 39.9552 31.2C40.2885 30.8833 40.6885 30.725 41.1552 30.725C41.6052 30.725 41.9885 30.8833 42.3052 31.2C42.6385 31.5167 42.8052 31.925 42.8052 32.425C42.8052 32.925 42.6385 33.3417 42.3052 33.675C41.9885 33.9917 41.6052 34.15 41.1552 34.15Z" fill="white"/>
<defs>
<linearGradient id="paint0_linear_4_111" x1="11.5" y1="3.03497e-07" x2="49" y2="49" gradientUnits="userSpaceOnUse">
<stop stop-color="#5F8ADA"/>
<stop offset="1" stop-color="#5749B0"/>
</linearGradient>
</defs>
</svg>
