<svg width="49" height="49" viewBox="0 0 49 49" fill="none" xmlns="http://www.w3.org/2000/svg">
<rect width="49" height="49" rx="14" fill="url(#paint0_linear_4_112)" fill-opacity="0.8"/>
<path d="M15.6493 34.2C14.2826 34.2 13.0576 33.85 11.9743 33.15C10.9076 32.45 10.0576 31.4333 9.42432 30.1C8.80765 28.7667 8.49932 27.15 8.49932 25.25C8.49932 23.35 8.80765 21.7333 9.42432 20.4C10.0576 19.0667 10.9076 18.05 11.9743 17.35C13.0576 16.65 14.2826 16.3 15.6493 16.3C16.9993 16.3 18.216 16.65 19.2993 17.35C20.3827 18.05 21.2327 19.0667 21.8493 20.4C22.466 21.7333 22.7743 23.35 22.7743 25.25C22.7743 27.15 22.466 28.7667 21.8493 30.1C21.2327 31.4333 20.3827 32.45 19.2993 33.15C18.216 33.85 16.9993 34.2 15.6493 34.2ZM15.6493 31.975C16.566 31.975 17.366 31.725 18.0493 31.225C18.7493 30.725 19.291 29.975 19.6743 28.975C20.0743 27.975 20.2743 26.7333 20.2743 25.25C20.2743 23.7667 20.0743 22.525 19.6743 21.525C19.291 20.525 18.7493 19.775 18.0493 19.275C17.366 18.775 16.566 18.525 15.6493 18.525C14.7327 18.525 13.9243 18.775 13.2243 19.275C12.5243 19.775 11.9743 20.525 11.5743 21.525C11.191 22.525 10.9993 23.7667 10.9993 25.25C10.9993 26.7333 11.191 27.975 11.5743 28.975C11.9743 29.975 12.5243 30.725 13.2243 31.225C13.9243 31.725 14.7327 31.975 15.6493 31.975ZM30.28 34.2C29.0466 34.2 27.8466 34.0083 26.68 33.625C25.53 33.2417 24.5883 32.725 23.855 32.075L25.005 30.1C25.5883 30.65 26.3466 31.1 27.28 31.45C28.2133 31.8 29.2133 31.975 30.28 31.975C31.58 31.975 32.5883 31.7 33.305 31.15C34.0383 30.5833 34.405 29.825 34.405 28.875C34.405 27.9583 34.055 27.225 33.355 26.675C32.6716 26.1083 31.58 25.825 30.08 25.825H28.68V24.075L33.88 17.675L34.23 18.675H24.655V16.5H36.205V18.2L31.03 24.575L29.73 23.8H30.555C32.6716 23.8 34.255 24.275 35.305 25.225C36.3716 26.175 36.905 27.3833 36.905 28.85C36.905 29.8333 36.6633 30.7333 36.18 31.55C35.6966 32.3667 34.9633 33.0167 33.98 33.5C33.0133 33.9667 31.78 34.2 30.28 34.2ZM40.8866 34.15C40.42 34.15 40.02 33.9917 39.6866 33.675C39.3533 33.3417 39.1866 32.925 39.1866 32.425C39.1866 31.925 39.3533 31.5167 39.6866 31.2C40.02 30.8833 40.42 30.725 40.8866 30.725C41.3366 30.725 41.72 30.8833 42.0366 31.2C42.37 31.5167 42.5366 31.925 42.5366 32.425C42.5366 32.925 42.37 33.3417 42.0366 33.675C41.72 33.9917 41.3366 34.15 40.8866 34.15Z" fill="white"/>
<defs>
<linearGradient id="paint0_linear_4_112" x1="8.5" y1="7.22858e-07" x2="49" y2="49" gradientUnits="userSpaceOnUse">
<stop stop-color="#5F8ADA"/>
<stop offset="1" stop-color="#5749B0"/>
</linearGradient>
</defs>
</svg>
