<svg width="49" height="49" viewBox="0 0 49 49" fill="none" xmlns="http://www.w3.org/2000/svg">
<rect width="49" height="49" rx="14" fill="url(#paint0_linear_4_111)" fill-opacity="0.8"/>
<path d="M13.5746 34.2C12.2079 34.2 10.9829 33.85 9.89961 33.15C8.83294 32.45 7.98294 31.4333 7.34961 30.1C6.73294 28.7667 6.42461 27.15 6.42461 25.25C6.42461 23.35 6.73294 21.7333 7.34961 20.4C7.98294 19.0667 8.83294 18.05 9.89961 17.35C10.9829 16.65 12.2079 16.3 13.5746 16.3C14.9246 16.3 16.1413 16.65 17.2246 17.35C18.3079 18.05 19.1579 19.0667 19.7746 20.4C20.3913 21.7333 20.6996 23.35 20.6996 25.25C20.6996 27.15 20.3913 28.7667 19.7746 30.1C19.1579 31.4333 18.3079 32.45 17.2246 33.15C16.1413 33.85 14.9246 34.2 13.5746 34.2ZM13.5746 31.975C14.4913 31.975 15.2913 31.725 15.9746 31.225C16.6746 30.725 17.2163 29.975 17.5996 28.975C17.9996 27.975 18.1996 26.7333 18.1996 25.25C18.1996 23.7667 17.9996 22.525 17.5996 21.525C17.2163 20.525 16.6746 19.775 15.9746 19.275C15.2913 18.775 14.4913 18.525 13.5746 18.525C12.6579 18.525 11.8496 18.775 11.1496 19.275C10.4496 19.775 9.89961 20.525 9.49961 21.525C9.11628 22.525 8.92461 23.7667 8.92461 25.25C8.92461 26.7333 9.11628 27.975 9.49961 28.975C9.89961 29.975 10.4496 30.725 11.1496 31.225C11.8496 31.725 12.6579 31.975 13.5746 31.975ZM22.8494 29.7V27.95L31.7994 16.5H34.4994L25.6244 27.95L24.3494 27.55H38.3244V29.7H22.8494ZM32.5744 34V29.7L32.6494 27.55V23.75H34.9994V34H32.5744ZM41.9613 34.15C41.4947 34.15 41.0947 33.9917 40.7613 33.675C40.428 33.3417 40.2613 32.925 40.2613 32.425C40.2613 31.925 40.428 31.5167 40.7613 31.2C41.0947 30.8833 41.4947 30.725 41.9613 30.725C42.4113 30.725 42.7947 30.8833 43.1113 31.2C43.4447 31.5167 43.6113 31.925 43.6113 32.425C43.6113 32.925 43.4447 33.3417 43.1113 33.675C42.7947 33.9917 42.4113 34.15 41.9613 34.15Z" fill="white"/>
<defs>
<linearGradient id="paint0_linear_4_111" x1="11.5" y1="3.03497e-07" x2="49" y2="49" gradientUnits="userSpaceOnUse">
<stop stop-color="#5F8ADA"/>
<stop offset="1" stop-color="#5749B0"/>
</linearGradient>
</defs>
</svg>
