<svg width="49" height="49" viewBox="0 0 49 49" fill="none" xmlns="http://www.w3.org/2000/svg">
<rect width="49" height="49" rx="14" fill="url(#paint0_linear_4_114)" fill-opacity="0.8"/>
<path d="M15.5028 34.2C14.1362 34.2 12.9112 33.85 11.8278 33.15C10.7612 32.45 9.91117 31.4333 9.27783 30.1C8.66117 28.7667 8.35283 27.15 8.35283 25.25C8.35283 23.35 8.66117 21.7333 9.27783 20.4C9.91117 19.0667 10.7612 18.05 11.8278 17.35C12.9112 16.65 14.1362 16.3 15.5028 16.3C16.8528 16.3 18.0695 16.65 19.1528 17.35C20.2362 18.05 21.0862 19.0667 21.7028 20.4C22.3195 21.7333 22.6278 23.35 22.6278 25.25C22.6278 27.15 22.3195 28.7667 21.7028 30.1C21.0862 31.4333 20.2362 32.45 19.1528 33.15C18.0695 33.85 16.8528 34.2 15.5028 34.2ZM15.5028 31.975C16.4195 31.975 17.2195 31.725 17.9028 31.225C18.6028 30.725 19.1445 29.975 19.5278 28.975C19.9278 27.975 20.1278 26.7333 20.1278 25.25C20.1278 23.7667 19.9278 22.525 19.5278 21.525C19.1445 20.525 18.6028 19.775 17.9028 19.275C17.2195 18.775 16.4195 18.525 15.5028 18.525C14.5862 18.525 13.7778 18.775 13.0778 19.275C12.3778 19.775 11.8278 20.525 11.4278 21.525C11.0445 22.525 10.8528 23.7667 10.8528 25.25C10.8528 26.7333 11.0445 27.975 11.4278 28.975C11.8278 29.975 12.3778 30.725 13.0778 31.225C13.7778 31.725 14.5862 31.975 15.5028 31.975ZM30.6776 34.2C29.4443 34.2 28.2443 34.0083 27.0776 33.625C25.9276 33.2417 24.986 32.725 24.2526 32.075L25.4026 30.1C25.986 30.65 26.7443 31.1 27.6776 31.45C28.611 31.8 29.6026 31.975 30.6526 31.975C31.986 31.975 33.011 31.6917 33.7276 31.125C34.4443 30.5583 34.8026 29.8 34.8026 28.85C34.8026 28.2 34.6443 27.6333 34.3276 27.15C34.011 26.6667 33.461 26.3 32.6776 26.05C31.911 25.7833 30.8526 25.65 29.5026 25.65H25.5276L26.4526 16.5H36.3276V18.675H27.3776L28.6776 17.45L27.9526 24.675L26.6526 23.475H30.0276C31.7776 23.475 33.186 23.7 34.2526 24.15C35.3193 24.6 36.0943 25.225 36.5776 26.025C37.061 26.8083 37.3026 27.7167 37.3026 28.75C37.3026 29.75 37.061 30.6667 36.5776 31.5C36.0943 32.3167 35.361 32.975 34.3776 33.475C33.411 33.9583 32.1776 34.2 30.6776 34.2ZM41.0331 34.15C40.5664 34.15 40.1664 33.9917 39.8331 33.675C39.4998 33.3417 39.3331 32.925 39.3331 32.425C39.3331 31.925 39.4998 31.5167 39.8331 31.2C40.1664 30.8833 40.5664 30.725 41.0331 30.725C41.4831 30.725 41.8664 30.8833 42.1831 31.2C42.5164 31.5167 42.6831 31.925 42.6831 32.425C42.6831 32.925 42.5164 33.3417 42.1831 33.675C41.8664 33.9917 41.4831 34.15 41.0331 34.15Z" fill="white"/>
<defs>
<linearGradient id="paint0_linear_4_114" x1="11.5" y1="3.03497e-07" x2="49" y2="49" gradientUnits="userSpaceOnUse">
<stop stop-color="#5F8ADA"/>
<stop offset="1" stop-color="#5749B0"/>
</linearGradient>
</defs>
</svg>
